<?xml version="1.0" encoding="UTF-8" standalone="no"?>
<!-- Created with Inkscape (http://www.inkscape.org/) -->

<svg
   width="112.4985mm"
   height="110.00304mm"
   viewBox="0 0 112.49849 110.00305"
   version="1.1"
   id="svg5"
   inkscape:version="1.1 (c4e8f9e, 2021-05-24)"
   sodipodi:docname="shape.svg"
   xmlns:inkscape="http://www.inkscape.org/namespaces/inkscape"
   xmlns:sodipodi="http://sodipodi.sourceforge.net/DTD/sodipodi-0.dtd"
   xmlns="http://www.w3.org/2000/svg"
   xmlns:svg="http://www.w3.org/2000/svg">
  <sodipodi:namedview
     id="namedview7"
     pagecolor="#ffffff"
     bordercolor="#999999"
     borderopacity="1"
     inkscape:pageshadow="0"
     inkscape:pageopacity="0"
     inkscape:pagecheckerboard="0"
     inkscape:document-units="mm"
     showgrid="false"
     fit-margin-top="0"
     fit-margin-left="0"
     fit-margin-right="0"
     fit-margin-bottom="0"
     inkscape:zoom="0.96739483"
     inkscape:cx="244.98787"
     inkscape:cy="229.99916"
     inkscape:window-width="1323"
     inkscape:window-height="715"
     inkscape:window-x="0"
     inkscape:window-y="25"
     inkscape:window-maximized="0"
     inkscape:current-layer="layer1" />
  <defs
     id="defs2" />
  <g
     inkscape:label="Calque 1"
     inkscape:groupmode="layer"
     id="layer1"
     transform="translate(34.187691,39.39106)">
    <path
       style="fill:none;stroke:#000000;stroke-width:0.375395px;stroke-linecap:butt;stroke-linejoin:miter;stroke-opacity:1"
       d="M 5.4594422,15.816581 C 7.9283924,12.699162 8.2654228,8.2083665 7.5855171,3.1175016 6.9056115,-1.9733632 5.2087697,-7.6642977 3.6099755,-13.181996 2.0111812,-18.699694 0.51043456,-24.044156 0.22271913,-28.442075 -0.0649963,-32.839995 0.8603195,-36.291371 4.1136502,-38.0229 c 3.2533307,-1.731528 5.8044746,-1.464073 8.1382438,0.120393 2.33377,1.584466 4.450165,4.485943 6.833999,8.022456 2.383834,3.536513 5.035106,7.708064 8.438628,11.832677 3.403523,4.124614 7.559296,8.2022908 12.952133,11.5510574 5.392837,3.3487666 10.553897,5.0104304 15.231849,5.74251283 4.677953,0.73208243 8.872799,0.53458344 12.333206,0.16502437 3.460408,-0.36955908 6.186378,-0.9111782 7.92658,-0.8673362 1.740202,0.043842 2.494635,0.67314543 2.01197,2.6454313 -1.239215,5.0637308 -3.962853,8.9297663 -7.616756,11.9693713 -3.653902,3.039604 -8.23807,5.252777 -13.198346,7.010782 -4.960276,1.758005 -10.29666,3.060842 -15.454995,4.279774 -5.158335,1.218932 -10.138621,2.353959 -14.386701,3.776345 -4.24808,1.422386 -7.632378,2.641816 -10.328442,3.871833 -2.696064,1.230017 -4.703894,2.470621 -6.199038,3.935355 -1.4951443,1.464733 -2.4776021,3.153597 -3.1229215,5.280133 -0.6453193,2.126537 -0.9535003,4.690746 -1.1000905,7.90617 -0.1465902,3.215424 -2.2020642,6.889007 -5.1687365,10.264896 -2.9666723,3.37589 -6.844543,6.454087 -10.6359265,8.47874 -3.791383,2.024654 -7.49628,2.995765 -10.117004,2.157482 -2.620723,-0.838282 -4.157275,-3.485958 -3.611968,-8.698878 0.545307,-5.21292 -0.435233,-9.739606 -2.005677,-13.772058 -1.570443,-4.032451 -3.730789,-7.570668 -5.545095,-10.806647 -1.814306,-3.23598 -3.282572,-6.169722 -3.468853,-8.993226 -0.186282,-2.823504 0.909421,-5.536769 4.223051,-8.331793 3.31363,-2.795024 6.55425,-3.644495 9.705573,-3.541338 3.151323,0.103156 6.213348,1.15894 9.169788,2.174424 2.9564402,1.015484 5.8072954,1.990669 8.536278,1.932628 2.72898273,-0.05804 5.3360929,-1.149309 7.8050432,-4.266728 z"
       id="path1248"
       sodipodi:nodetypes="sssssssssssssssssssssssssssssssss" />
  </g>
</svg>
